<?xml version="1.0" standalone="no"?>
<!DOCTYPE svg PUBLIC "-//W3C//DTD SVG 20010904//EN"
 "http://www.w3.org/TR/2001/REC-SVG-20010904/DTD/svg10.dtd">
<svg version="1.0" xmlns="http://www.w3.org/2000/svg"
 width="514.000000pt" height="514.000000pt" viewBox="0 0 514.000000 514.000000"
 preserveAspectRatio="xMidYMid meet">
<metadata>
Created by potrace 1.14, written by Peter Selinger 2001-2017
</metadata>
<g transform="translate(0.000000,514.000000) scale(0.100000,-0.100000)"
fill="#000000" stroke="none">
<path d="M2359 5125 c-2 -2 -31 -6 -64 -9 -33 -3 -75 -8 -92 -11 -18 -3 -45
-7 -60 -9 -23 -4 -128 -26 -193 -40 -182 -42 -510 -173 -650 -261 -19 -12 -66
-42 -105 -66 -386 -240 -740 -640 -933 -1049 -67 -143 -141 -336 -157 -410 -1
-8 -8 -35 -15 -60 -23 -84 -57 -271 -68 -370 -16 -143 -7 -522 14 -647 71
-413 187 -713 399 -1033 136 -204 277 -365 455 -520 41 -36 80 -69 86 -75 20
-18 188 -135 249 -174 155 -98 382 -202 570 -262 99 -31 287 -78 338 -84 52
-6 120 -16 152 -22 17 -3 131 -6 255 -8 205 -3 330 5 455 29 17 4 46 9 65 12
67 10 276 67 355 97 44 16 105 38 135 50 138 51 496 259 575 333 11 11 45 38
75 61 68 52 213 193 301 293 216 245 397 560 499 870 30 92 75 264 86 325 2
17 9 55 14 85 20 112 25 190 25 395 0 217 -7 324 -31 445 -3 14 -7 39 -10 55
-3 17 -23 97 -45 178 -118 440 -347 828 -680 1157 -101 100 -134 128 -264 224
-348 259 -728 417 -1155 481 -19 2 -53 8 -75 11 -44 7 -500 15 -506 9z"/>
</g>
</svg>
